<?xml version="1.0" standalone="no"?>
<!DOCTYPE svg PUBLIC "-//W3C//DTD SVG 20010904//EN"
 "http://www.w3.org/TR/2001/REC-SVG-20010904/DTD/svg10.dtd">
<svg version="1.0" xmlns="http://www.w3.org/2000/svg"
 width="319.000000pt" height="131.000000pt" viewBox="0 0 319.000000 131.000000"
 preserveAspectRatio="xMidYMid meet">

<g transform="translate(0.000000,131.000000) scale(0.100000,-0.100000)"
fill="#000000" stroke="none">
<path d="M186 1183 c-36 -19 -60 -41 -75 -70 -16 -31 -16 -896 1 -926 16 -30
35 -48 74 -69 32 -17 100 -18 1383 -18 1266 0 1351 1 1382 18 38 20 64 43 78
71 16 28 15 894 0 924 -15 28 -45 54 -88 72 -29 13 -216 15 -1380 15 -1208 -1
-1349 -2 -1375 -17z m2715 -24 c19 -7 46 -23 62 -37 l27 -26 0 -435 c0 -240
-3 -446 -6 -457 -3 -12 -27 -33 -54 -48 l-48 -26 -1312 0 -1312 0 -48 26 c-27
15 -51 36 -54 48 -3 11 -6 217 -6 457 l0 436 25 23 c14 14 38 30 53 36 38 17
2623 19 2673 3z"/>
<path d="M1060 805 c0 -10 7 -15 18 -13 21 4 19 22 -2 26 -10 2 -16 -3 -16
-13z"/>
<path d="M1137 814 c-9 -10 2 -24 19 -24 8 0 14 7 14 15 0 15 -21 21 -33 9z"/>
<path d="M845 766 c-53 -23 -68 -92 -26 -123 22 -17 93 -26 130 -18 27 6 31
11 31 41 0 34 0 34 -45 34 -25 0 -45 -4 -45 -10 0 -5 9 -10 20 -10 14 0 20 -7
20 -21 0 -19 -4 -21 -37 -16 -41 7 -53 20 -53 59 0 49 59 70 123 43 10 -4 17
-3 17 4 0 29 -85 39 -135 17z"/>
<path d="M1027 773 c-11 -10 -8 -77 4 -111 9 -26 17 -32 54 -37 44 -7 80 -1
103 17 7 7 12 35 12 74 0 57 -2 64 -20 64 -18 0 -20 -7 -20 -64 0 -57 -3 -65
-21 -71 -11 -4 -31 -4 -45 -1 -22 6 -24 11 -24 71 0 56 -2 65 -18 65 -10 0
-22 -3 -25 -7z"/>
<path d="M1260 700 c0 -64 3 -80 15 -80 12 0 15 14 15 63 1 57 2 60 16 42 8
-11 21 -28 29 -37 7 -9 21 -28 31 -43 12 -19 24 -25 43 -23 25 3 26 5 26 78 0
63 -3 75 -17 78 -16 3 -18 -5 -18 -65 l0 -68 -45 68 c-36 53 -51 67 -70 67
-25 0 -25 -2 -25 -80z"/>
<path d="M1524 766 c-34 -15 -44 -32 -44 -78 0 -36 16 -53 57 -62 37 -9 103 2
103 16 0 6 -11 7 -26 4 -46 -12 -82 2 -89 34 -12 54 43 98 87 71 27 -17 38 -3
14 15 -24 17 -61 17 -102 0z"/>
<path d="M1680 700 l0 -80 60 0 c33 0 60 4 60 10 0 6 -18 10 -40 10 -36 0 -40
3 -40 25 0 22 4 25 35 25 19 0 35 5 35 10 0 6 -16 10 -35 10 -31 0 -35 3 -35
25 0 23 4 25 40 25 22 0 40 5 40 10 0 6 -27 10 -60 10 l-60 0 0 -80z"/>
<path d="M1850 700 l0 -80 55 0 c30 0 55 5 55 10 0 6 -16 10 -35 10 l-35 0 0
70 c0 63 -2 70 -20 70 -18 0 -20 -7 -20 -80z"/>
<path d="M2000 700 l0 -80 55 0 c30 0 55 5 55 10 0 6 -16 10 -35 10 l-35 0 0
70 c0 63 -2 70 -20 70 -18 0 -20 -7 -20 -80z"/>
<path d="M2150 700 l0 -80 60 0 c33 0 60 4 60 10 0 6 -18 10 -40 10 -36 0 -40
3 -40 25 0 22 4 25 35 25 19 0 35 5 35 10 0 6 -16 10 -35 10 -31 0 -35 3 -35
25 0 23 4 25 40 25 22 0 40 5 40 10 0 6 -27 10 -60 10 l-60 0 0 -80z"/>
</g>
</svg>
