<?xml version="1.0" standalone="no"?>
<!DOCTYPE svg PUBLIC "-//W3C//DTD SVG 20010904//EN"
 "http://www.w3.org/TR/2001/REC-SVG-20010904/DTD/svg10.dtd">
<svg version="1.0" xmlns="http://www.w3.org/2000/svg"
 width="319.000000pt" height="131.000000pt" viewBox="0 0 319.000000 131.000000"
 preserveAspectRatio="xMidYMid meet">

<g transform="translate(0.000000,131.000000) scale(0.100000,-0.100000)"
fill="#000000" stroke="none">
<path d="M186 1183 c-36 -19 -60 -41 -75 -70 -16 -31 -16 -896 1 -926 16 -30
35 -48 74 -69 32 -17 100 -18 1383 -18 1266 0 1351 1 1382 18 38 20 64 43 78
71 16 28 15 894 0 924 -15 28 -45 54 -88 72 -29 13 -216 15 -1380 15 -1208 -1
-1349 -2 -1375 -17z m2715 -24 c19 -7 46 -23 62 -37 l27 -26 0 -435 c0 -240
-3 -446 -6 -457 -3 -12 -27 -33 -54 -48 l-48 -26 -1312 0 -1312 0 -48 26 c-27
15 -51 36 -54 48 -3 11 -6 217 -6 457 l0 436 25 23 c14 14 38 30 53 36 38 17
2623 19 2673 3z"/>
<path d="M1014 837 c-3 -8 -3 -56 -2 -108 3 -88 4 -94 25 -97 20 -3 22 2 25
50 l3 53 32 -52 c22 -36 39 -53 53 -53 27 0 25 14 -10 65 -16 24 -30 48 -30
53 0 4 13 26 30 48 35 46 36 54 10 54 -13 0 -32 -17 -53 -46 l-32 -46 -3 46
c-3 38 -6 46 -23 46 -11 0 -22 -6 -25 -13z"/>
<path d="M1255 838 c-2 -7 -18 -51 -35 -97 -35 -99 -36 -111 -11 -111 12 0 21
9 25 25 6 22 12 25 51 25 39 0 45 -3 51 -25 4 -18 13 -25 31 -25 19 0 23 4 19
18 -4 9 -21 58 -39 107 -29 81 -35 90 -60 93 -16 2 -29 -2 -32 -10z m32 -126
c-16 -2 -31 -2 -33 1 -2 2 4 26 13 53 l16 49 17 -50 17 -50 -30 -3z"/>
<path d="M1400 840 c0 -6 14 -37 30 -70 19 -37 30 -75 30 -100 0 -33 3 -40 20
-40 17 0 20 7 20 40 0 26 12 65 35 110 l35 70 -24 0 c-18 0 -28 -10 -44 -47
l-21 -48 -21 48 c-15 33 -27 47 -40 47 -11 0 -20 -5 -20 -10z"/>
<path d="M1600 739 l0 -111 60 4 c44 3 66 10 84 27 49 46 41 148 -14 176 -16
8 -52 15 -80 15 l-50 0 0 -111z m110 61 c45 -45 14 -140 -45 -140 -25 0 -25 1
-25 80 0 79 0 80 25 80 14 0 34 -9 45 -20z"/>
<path d="M1820 740 l0 -110 60 0 c47 0 60 3 60 15 0 11 -11 15 -40 15 -39 0
-40 1 -40 35 0 33 2 35 35 35 24 0 35 5 35 15 0 10 -11 15 -35 15 -32 0 -35 2
-35 30 0 28 2 30 40 30 29 0 40 4 40 15 0 12 -13 15 -60 15 l-60 0 0 -110z"/>
<path d="M1960 835 c0 -10 10 -15 30 -15 l29 0 3 -92 c3 -88 4 -93 26 -96 21
-3 22 -1 22 92 l0 96 30 0 c20 0 30 5 30 15 0 12 -16 15 -85 15 -69 0 -85 -3
-85 -15z"/>
</g>
</svg>
