<?xml version="1.0" standalone="no"?>
<!DOCTYPE svg PUBLIC "-//W3C//DTD SVG 20010904//EN"
 "http://www.w3.org/TR/2001/REC-SVG-20010904/DTD/svg10.dtd">
<svg version="1.0" xmlns="http://www.w3.org/2000/svg"
 width="319.000000pt" height="131.000000pt" viewBox="0 0 319.000000 131.000000"
 preserveAspectRatio="xMidYMid meet">

<g transform="translate(0.000000,131.000000) scale(0.100000,-0.100000)"
fill="#000000" stroke="none">
<path d="M186 1183 c-36 -19 -60 -41 -75 -70 -16 -31 -16 -896 1 -926 16 -30
35 -48 74 -69 32 -17 100 -18 1383 -18 1266 0 1351 1 1382 18 38 20 64 43 78
71 16 28 15 894 0 924 -15 28 -45 54 -88 72 -29 13 -216 15 -1380 15 -1208 -1
-1349 -2 -1375 -17z m2715 -24 c19 -7 46 -23 62 -37 l27 -26 0 -435 c0 -240
-3 -446 -6 -457 -3 -12 -27 -33 -54 -48 l-48 -26 -1312 0 -1312 0 -48 26 c-27
15 -51 36 -54 48 -3 11 -6 217 -6 457 l0 436 25 23 c14 14 38 30 53 36 38 17
2623 19 2673 3z"/>
<path d="M1976 744 c-9 -8 -16 -26 -16 -39 0 -13 -8 -26 -17 -30 -17 -6 -17
-7 0 -19 13 -10 17 -28 17 -75 0 -54 2 -61 20 -61 18 0 20 7 20 65 0 58 2 65
20 65 11 0 20 7 20 15 0 8 -9 15 -20 15 -14 0 -20 7 -20 21 0 12 8 23 20 26
11 3 20 12 20 19 0 19 -45 18 -64 -2z"/>
<path d="M845 728 c-2 -7 -18 -51 -35 -97 -35 -99 -36 -111 -11 -111 12 0 21
9 25 25 6 22 12 25 51 25 39 0 45 -3 51 -25 4 -18 13 -25 31 -25 19 0 23 4 19
18 -4 9 -21 58 -39 107 -29 81 -35 90 -60 93 -16 2 -29 -2 -32 -10z m32 -126
c-16 -2 -31 -2 -33 1 -2 2 4 26 13 53 l16 49 17 -50 17 -50 -30 -3z"/>
<path d="M1462 724 c-45 -31 -17 -98 49 -119 14 -5 19 -14 17 -28 -2 -17 -10
-22 -33 -21 -16 0 -38 4 -47 8 -25 11 -24 -20 1 -34 34 -18 80 -12 106 15 42
41 30 72 -42 109 -54 27 -32 73 23 48 21 -10 24 -9 24 7 0 33 -59 42 -98 15z"/>
<path d="M1000 600 c0 -73 2 -80 20 -80 17 0 20 7 20 53 0 55 12 77 41 77 22
0 29 -20 29 -81 0 -42 3 -49 20 -49 18 0 20 7 20 58 0 87 -34 122 -91 92 -13
-7 -19 -7 -19 0 0 5 -9 10 -20 10 -18 0 -20 -7 -20 -80z"/>
<path d="M1213 668 c-13 -6 -23 -17 -23 -25 0 -16 12 -17 27 -2 14 14 55 8 61
-8 2 -9 -7 -13 -27 -13 -32 0 -71 -29 -71 -53 0 -28 34 -45 88 -44 l52 1 0 62
c0 44 -5 67 -16 78 -18 18 -58 20 -91 4z m67 -92 c0 -18 -39 -31 -52 -18 -15
15 0 32 28 32 14 0 24 -6 24 -14z"/>
<path d="M1633 668 c-13 -6 -23 -17 -23 -25 0 -16 12 -17 27 -2 14 14 55 8 61
-8 2 -9 -7 -13 -27 -13 -32 0 -71 -29 -71 -53 0 -28 34 -45 88 -44 l52 1 0 62
c0 44 -5 67 -16 78 -18 18 -58 20 -91 4z m67 -92 c0 -18 -39 -31 -52 -18 -15
15 0 32 28 32 14 0 24 -6 24 -14z"/>
<path d="M1770 667 c0 -8 12 -42 26 -77 18 -45 24 -73 19 -97 -5 -28 -3 -33
14 -33 20 0 26 13 77 157 10 29 15 55 12 59 -14 14 -36 -6 -48 -43 -19 -58
-26 -59 -46 -4 -12 36 -23 51 -36 51 -10 0 -18 -6 -18 -13z"/>
<path d="M2083 668 c-13 -6 -23 -17 -23 -25 0 -16 12 -17 27 -2 14 14 55 8 61
-8 2 -9 -7 -13 -27 -13 -32 0 -71 -29 -71 -53 0 -28 34 -45 88 -44 l52 1 0 62
c0 44 -5 67 -16 78 -18 18 -58 20 -91 4z m67 -92 c0 -18 -39 -31 -52 -18 -15
15 0 32 28 32 14 0 24 -6 24 -14z"/>
</g>
</svg>
