<?xml version="1.0" standalone="no"?>
<!DOCTYPE svg PUBLIC "-//W3C//DTD SVG 20010904//EN"
 "http://www.w3.org/TR/2001/REC-SVG-20010904/DTD/svg10.dtd">
<svg version="1.0" xmlns="http://www.w3.org/2000/svg"
 width="319.000000pt" height="131.000000pt" viewBox="0 0 319.000000 131.000000"
 preserveAspectRatio="xMidYMid meet">

<g transform="translate(0.000000,131.000000) scale(0.100000,-0.100000)"
fill="#000000" stroke="none">
<path d="M186 1183 c-36 -19 -60 -41 -75 -70 -16 -31 -16 -896 1 -926 16 -30
35 -48 74 -69 32 -17 100 -18 1383 -18 1266 0 1351 1 1382 18 38 20 64 43 78
71 16 28 15 894 0 924 -15 28 -45 54 -88 72 -29 13 -216 15 -1380 15 -1208 -1
-1349 -2 -1375 -17z m2715 -24 c19 -7 46 -23 62 -37 l27 -26 0 -435 c0 -240
-3 -446 -6 -457 -3 -12 -27 -33 -54 -48 l-48 -26 -1312 0 -1312 0 -48 26 c-27
15 -51 36 -54 48 -3 11 -6 217 -6 457 l0 436 25 23 c14 14 38 30 53 36 38 17
2623 19 2673 3z"/>
<path d="M1075 850 c-4 -7 -3 -16 3 -22 14 -14 45 -2 40 15 -6 16 -34 21 -43
7z"/>
<path d="M1074 787 c-3 -8 -3 -56 -2 -108 3 -89 4 -94 26 -97 22 -3 22 -2 22
107 0 105 -1 111 -20 111 -11 0 -23 -6 -26 -13z"/>
<path d="M1170 690 c0 -103 1 -110 20 -110 17 0 20 7 20 40 0 38 2 40 30 40
19 0 40 9 55 25 54 53 13 115 -76 115 l-49 0 0 -110z m98 46 c4 -30 -10 -46
-40 -46 -14 0 -18 9 -18 41 0 38 1 40 28 37 21 -2 28 -9 30 -32z"/>
<path d="M1330 785 c0 -10 10 -15 30 -15 l29 0 3 -92 c3 -88 4 -93 26 -96 21
-3 22 -1 22 92 l0 96 30 0 c20 0 30 5 30 15 0 12 -16 15 -85 15 -69 0 -85 -3
-85 -15z"/>
<path d="M1575 788 c-2 -7 -18 -51 -35 -97 -35 -99 -36 -111 -11 -111 12 0 21
9 25 25 6 22 12 25 51 25 39 0 45 -3 51 -25 4 -18 13 -25 31 -25 19 0 23 4 19
18 -4 9 -21 58 -39 107 -29 81 -35 90 -60 93 -16 2 -29 -2 -32 -10z m32 -126
c-16 -2 -31 -2 -33 1 -2 2 4 26 13 53 l16 49 17 -50 17 -50 -30 -3z"/>
<path d="M1740 690 l0 -111 55 3 c63 3 79 21 23 26 l-38 3 0 95 c0 87 -1 94
-20 94 -19 0 -20 -7 -20 -110z"/>
</g>
</svg>
